# xmcd
#
# Track frame offsets: 
#        150
#        8905
#        21806
#        32223
#        52284
#        66665
#        82099
#        102157
#        118404
#        137430
#        152950
#        172823
#        185974
#        198805
#        218527
#        234630
#
# Disc length: 3320 seconds
#
# Revision: 1
# Processed by: cddbd v1.5.2PL0 Copyright (c) Steve Scherf et al.
# Submitted via: ExactAudioCopy v1.3
#
DISCID=e80cf610
DTITLE=Siudma Góra - Daleko do gwiazd
DYEAR=2009
DGENRE=Folk
TTITLE0=Już
TTITLE1=Biegnij
TTITLE2=Rośniesz sobie
TTITLE3=Bez zmrużenia
TTITLE4=Świat nie całkiem
TTITLE5=Jak oddycham
TTITLE6=Deszcz
TTITLE7=Daleko do gwiazd
TTITLE8=Jedyne takie miejsce
TTITLE9=Wróżba z kart
TTITLE10=Jesienna ucieczka
TTITLE11=Dedykacja
TTITLE12=Pies
TTITLE13=Zawrócić
TTITLE14=Pogoda
TTITLE15=Dobrze wiem
EXTD=
EXTT0=
EXTT1=
EXTT2=
EXTT3=
EXTT4=
EXTT5=
EXTT6=
EXTT7=
EXTT8=
EXTT9=
EXTT10=
EXTT11=
EXTT12=
EXTT13=
EXTT14=
EXTT15=
PLAYORDER=
